{
  "accessors": [
    {
      "bufferView": 2,
      "componentType": 5126,
      "count": 20,
      "max": [
        0.809283971786499,
        4.6294379234313965,
        1.4299800395965576
      ],
      "min": [
        0.31490400433540344,
        1.5758819580078125,
        0.3775399923324585
      ],
      "type": "VEC3"
    },
    {
      "bufferView": 2,
      "byteOffset": 240,
      "componentType": 5126,
      "count": 20,
      "max": [
        1.0,
        1.0,
        1.0
      ],
      "min": [
        0.0,
        -1.0,
        -1.0
      ],
      "type": "VEC3"
    },
    {
      "bufferView": 1,
      "componentType": 5126,
      "count": 20,
      "max": [
        0.7639960050582886,
        0.8431879878044128
      ],
      "min": [
        0.07832399755716324,
        0.22730599343776703
      ],
      "type": "VEC2"
    },
    {
      "bufferView": 0,
      "componentType": 5125,
      "count": 30,
      "type": "SCALAR"
    },
    {
      "bufferView": 2,
      "byteOffset": 480,
      "componentType": 5126,
      "count": 292,
      "max": [
        1.0,
        4.90256404876709,
        1.8902820348739624
      ],
      "min": [
        -1.0,
        -1.0,
        0.022588999941945076
      ],
      "type": "VEC3"
    },
    {
      "bufferView": 2,
      "byteOffset": 3984,
      "componentType": 5126,
      "count": 292,
      "max": [
        1.0,
        1.0,
        0.0
      ],
      "min": [
        -1.0,
        -1.0,
        -1.0
      ],
      "type": "VEC3"
    },
    {
      "bufferView": 3,
      "componentType": 5126,
      "count": 292,
      "max": [
        0.9999998211860657,
        0.0007441766210831702,
        1.0,
        1.0
      ],
      "min": [
        -8.175478797056712e-06,
        -0.00012439003330655396,
        -1.0,
        1.0
      ],
      "type": "VEC4"
    },
    {
      "bufferView": 1,
      "byteOffset": 160,
      "componentType": 5126,
      "count": 292,
      "max": [
        0.8718609809875488,
        0.8805919885635376
      ],
      "min": [
        0.16612499952316284,
        0.11016800254583359
      ],
      "type": "VEC2"
    },
    {
      "bufferView": 0,
      "byteOffset": 120,
      "componentType": 5125,
      "count": 786,
      "type": "SCALAR"
    },
    {
      "bufferView": 2,
      "byteOffset": 7488,
      "componentType": 5126,
      "count": 120,
      "max": [
        1.0086230039596558,
        4.938739776611328,
        3.3709371089935303
      ],
      "min": [
        -1.0060009956359863,
        -1.0126930475234985,
        0.6709049940109253
      ],
      "type": "VEC3"
    },
    {
      "bufferView": 2,
      "byteOffset": 8928,
      "componentType": 5126,
      "count": 120,
      "max": [
        1.0,
        1.0,
        1.0
      ],
      "min": [
        -1.0,
        -1.0,
        -1.0
      ],
      "type": "VEC3"
    },
    {
      "bufferView": 3,
      "byteOffset": 4672,
      "componentType": 5126,
      "count": 120,
      "max": [
        1.0,
        1.0,
        1.0,
        1.0
      ],
      "min": [
        -1.0,
        -1.0,
        -1.0,
        1.0
      ],
      "type": "VEC4"
    },
    {
      "bufferView": 1,
      "byteOffset": 2496,
      "componentType": 5126,
      "count": 120,
      "max": [
        0.8691819906234741,
        0.9176959991455078
      ],
      "min": [
        0.00113800005055964,
        0.1104239970445633
      ],
      "type": "VEC2"
    },
    {
      "bufferView": 0,
      "byteOffset": 3264,
      "componentType": 5125,
      "count": 180,
      "type": "SCALAR"
    },
    {
      "bufferView": 2,
      "byteOffset": 10368,
      "componentType": 5126,
      "count": 6650,
      "max": [
        1.0219780206680298,
        4.96758508682251,
        3.3709371089935303
      ],
      "min": [
        -1.0193560123443604,
        -1.0224590301513672,
        0.6709039807319641
      ],
      "type": "VEC3"
    },
    {
      "bufferView": 2,
      "byteOffset": 90168,
      "componentType": 5126,
      "count": 6650,
      "max": [
        0.7071387767791748,
        0.7356057167053223,
        0.500112771987915
      ],
      "min": [
        -0.7071886658668518,
        -0.7356057167053223,
        -0.5001024603843689
      ],
      "type": "VEC3"
    },
    {
      "bufferView": 3,
      "byteOffset": 6592,
      "componentType": 5126,
      "count": 6650,
      "max": [
        0.5919067859649658,
        0.5834376811981201,
        0.8290174007415771,
        1.0
      ],
      "min": [
        -0.5937989354133606,
        -0.5834717154502869,
        -0.8647651076316833,
        1.0
      ],
      "type": "VEC4"
    },
    {
      "bufferView": 1,
      "byteOffset": 3456,
      "componentType": 5126,
      "count": 6650,
      "max": [
        0.7977659702301025,
        0.8561869859695435
      ],
      "min": [
        0.0009929999941959977,
        0.00303900009021163
      ],
      "type": "VEC2"
    },
    {
      "bufferView": 0,
      "byteOffset": 3984,
      "componentType": 5125,
      "count": 12432,
      "type": "SCALAR"
    },
    {
      "bufferView": 2,
      "byteOffset": 169968,
      "componentType": 5126,
      "count": 34526,
      "max": [
        1.392307996749878,
        5.154941082000732,
        5.115139961242676
      ],
      "min": [
        -1.3840179443359375,
        -1.3874989748001099,
        3.055996894836426
      ],
      "type": "VEC3"
    },
    {
      "bufferView": 2,
      "byteOffset": 584280,
      "componentType": 5126,
      "count": 34526,
      "max": [
        0.9999395608901978,
        0.9997971653938293,
        0.9992166757583618
      ],
      "min": [
        -0.9999395608901978,
        -0.9997971653938293,
        -0.9995095133781433
      ],
      "type": "VEC3"
    },
    {
      "bufferView": 3,
      "byteOffset": 112992,
      "componentType": 5126,
      "count": 34526,
      "max": [
        0.9995141625404358,
        0.9894323348999023,
        0.8756200671195984,
        1.0
      ],
      "min": [
        -0.9995172619819641,
        -0.9894323348999023,
        -0.9999395608901978,
        1.0
      ],
      "type": "VEC4"
    },
    {
      "bufferView": 1,
      "byteOffset": 56656,
      "componentType": 5126,
      "count": 34526,
      "max": [
        0.9999669790267944,
        0.9994909763336182
      ],
      "min": [
        4.400000034365803e-05,
        0.00039000000106170774
      ],
      "type": "VEC2"
    },
    {
      "bufferView": 0,
      "byteOffset": 53712,
      "componentType": 5125,
      "count": 58968,
      "type": "SCALAR"
    },
    {
      "bufferView": 2,
      "byteOffset": 998592,
      "componentType": 5126,
      "count": 338,
      "max": [
        1.0,
        4.981578826904297,
        4.993265151977539
      ],
      "min": [
        -1.0,
        -1.0,
        1.7337440252304077
      ],
      "type": "VEC3"
    },
    {
      "bufferView": 2,
      "byteOffset": 1002648,
      "componentType": 5126,
      "count": 338,
      "max": [
        1.0,
        1.0,
        0.0
      ],
      "min": [
        -1.0,
        -1.0,
        0.0
      ],
      "type": "VEC3"
    },
    {
      "bufferView": 3,
      "byteOffset": 665408,
      "componentType": 5126,
      "count": 338,
      "max": [
        1.0,
        1.0,
        1.0,
        1.0
      ],
      "min": [
        -5.656029679812491e-05,
        -1.0,
        -1.0,
        1.0
      ],
      "type": "VEC4"
    },
    {
      "bufferView": 1,
      "byteOffset": 332864,
      "componentType": 5126,
      "count": 338,
      "max": [
        0.944009006023407,
        0.944337010383606
      ],
      "min": [
        0.0012550000101327896,
        0.002283999929204583
      ],
      "type": "VEC2"
    },
    {
      "bufferView": 0,
      "byteOffset": 289584,
      "componentType": 5125,
      "count": 822,
      "type": "SCALAR"
    },
    {
      "bufferView": 2,
      "byteOffset": 1006704,
      "componentType": 5126,
      "count": 7612,
      "max": [
        1.2285239696502686,
        4.99358606338501,
        5.001681804656982
      ],
      "min": [
        -1.8906019926071167,
        -2.5343339443206787,
        -0.0436209999024868
      ],
      "type": "VEC3"
    },
    {
      "bufferView": 2,
      "byteOffset": 1098048,
      "componentType": 5126,
      "count": 7612,
      "max": [
        1.0,
        1.0,
        1.0
      ],
      "min": [
        -1.0,
        -1.0,
        -1.0
      ],
      "type": "VEC3"
    },
    {
      "bufferView": 3,
      "byteOffset": 670816,
      "componentType": 5126,
      "count": 7612,
      "max": [
        1.0,
        1.0,
        1.0,
        1.0
      ],
      "min": [
        -1.0,
        -1.0,
        -1.0,
        1.0
      ],
      "type": "VEC4"
    },
    {
      "bufferView": 1,
      "byteOffset": 335568,
      "componentType": 5126,
      "count": 7612,
      "max": [
        0.9857410192489624,
        0.9849740266799927
      ],
      "min": [
        0.0030620000325143337,
        0.0021170000545680523
      ],
      "type": "VEC2"
    },
    {
      "bufferView": 0,
      "byteOffset": 292872,
      "componentType": 5125,
      "count": 18150,
      "type": "SCALAR"
    }
  ],
  "asset": {
    "extras": {
      "author": "DeimonIC93 (https://sketchfab.com/Deimon)",
      "license": "CC-BY-4.0 (http://creativecommons.org/licenses/by/4.0/)",
      "source": "https://sketchfab.com/3d-models/aot-medieaval-house-model-137c78b3ef3545af82202c570567e446",
      "title": "AOT Medieaval House Model"
    },
    "generator": "Sketchfab-12.67.0",
    "version": "2.0"
  },
  "bufferViews": [
    {
      "buffer": 0,
      "byteLength": 365472,
      "name": "floatBufferViews",
      "target": 34963
    },
    {
      "buffer": 0,
      "byteLength": 396464,
      "byteOffset": 365472,
      "byteStride": 8,
      "name": "floatBufferViews",
      "target": 34962
    },
    {
      "buffer": 0,
      "byteLength": 1189392,
      "byteOffset": 761936,
      "byteStride": 12,
      "name": "floatBufferViews",
      "target": 34962
    },
    {
      "buffer": 0,
      "byteLength": 792608,
      "byteOffset": 1951328,
      "byteStride": 16,
      "name": "floatBufferViews",
      "target": 34962
    }
  ],
  "buffers": [
    {
      "byteLength": 2743936,
      "uri": "scene.bin"
    }
  ],
  "images": [
    {
      "uri": "textures/black_baseColor.png"
    },
    {
      "uri": "textures/brick_metallicRoughness.png"
    },
    {
      "uri": "textures/brick_normal.png"
    }
  ],
  "materials": [
    {
      "doubleSided": true,
      "name": "black",
      "pbrMetallicRoughness": {
        "baseColorTexture": {
          "index": 0
        },
        "metallicFactor": 0.0,
        "roughnessFactor": 0.6
      }
    },
    {
      "doubleSided": true,
      "name": "brick",
      "normalTexture": {
        "index": 2
      },
      "pbrMetallicRoughness": {
        "baseColorTexture": {
          "index": 0
        },
        "metallicRoughnessTexture": {
          "index": 1
        }
      }
    },
    {
      "doubleSided": true,
      "emissiveFactor": [
        1.0,
        1.0,
        0.3390337082867334
      ],
      "name": "glass",
      "normalTexture": {
        "index": 2
      },
      "pbrMetallicRoughness": {
        "baseColorTexture": {
          "index": 0
        },
        "metallicRoughnessTexture": {
          "index": 1
        }
      }
    },
    {
      "doubleSided": true,
      "name": "jadeiron",
      "normalTexture": {
        "index": 2
      },
      "pbrMetallicRoughness": {
        "baseColorTexture": {
          "index": 0
        },
        "metallicRoughnessTexture": {
          "index": 1
        }
      }
    },
    {
      "doubleSided": true,
      "name": "roof",
      "normalTexture": {
        "index": 2
      },
      "pbrMetallicRoughness": {
        "baseColorTexture": {
          "index": 0
        },
        "metallicRoughnessTexture": {
          "index": 1
        }
      }
    },
    {
      "doubleSided": true,
      "name": "wall",
      "normalTexture": {
        "index": 2
      },
      "pbrMetallicRoughness": {
        "baseColorTexture": {
          "index": 0
        },
        "metallicRoughnessTexture": {
          "index": 1
        }
      }
    },
    {
      "doubleSided": true,
      "name": "wood",
      "normalTexture": {
        "index": 2
      },
      "pbrMetallicRoughness": {
        "baseColorTexture": {
          "index": 0
        },
        "metallicRoughnessTexture": {
          "index": 1
        }
      }
    }
  ],
  "meshes": [
    {
      "name": "Object_0",
      "primitives": [
        {
          "attributes": {
            "NORMAL": 1,
            "POSITION": 0,
            "TEXCOORD_0": 2
          },
          "indices": 3,
          "material": 0,
          "mode": 4
        }
      ]
    },
    {
      "name": "Object_1",
      "primitives": [
        {
          "attributes": {
            "NORMAL": 5,
            "POSITION": 4,
            "TANGENT": 6,
            "TEXCOORD_0": 7
          },
          "indices": 8,
          "material": 1,
          "mode": 4
        }
      ]
    },
    {
      "name": "Object_2",
      "primitives": [
        {
          "attributes": {
            "NORMAL": 10,
            "POSITION": 9,
            "TANGENT": 11,
            "TEXCOORD_0": 12
          },
          "indices": 13,
          "material": 2,
          "mode": 4
        }
      ]
    },
    {
      "name": "Object_3",
      "primitives": [
        {
          "attributes": {
            "NORMAL": 15,
            "POSITION": 14,
            "TANGENT": 16,
            "TEXCOORD_0": 17
          },
          "indices": 18,
          "material": 3,
          "mode": 4
        }
      ]
    },
    {
      "name": "Object_4",
      "primitives": [
        {
          "attributes": {
            "NORMAL": 20,
            "POSITION": 19,
            "TANGENT": 21,
            "TEXCOORD_0": 22
          },
          "indices": 23,
          "material": 4,
          "mode": 4
        }
      ]
    },
    {
      "name": "Object_5",
      "primitives": [
        {
          "attributes": {
            "NORMAL": 25,
            "POSITION": 24,
            "TANGENT": 26,
            "TEXCOORD_0": 27
          },
          "indices": 28,
          "material": 5,
          "mode": 4
        }
      ]
    },
    {
      "name": "Object_6",
      "primitives": [
        {
          "attributes": {
            "NORMAL": 30,
            "POSITION": 29,
            "TANGENT": 31,
            "TEXCOORD_0": 32
          },
          "indices": 33,
          "material": 6,
          "mode": 4
        }
      ]
    }
  ],
  "nodes": [
    {
      "children": [
        1
      ],
      "matrix": [
        1.0,
        0.0,
        0.0,
        0.0,
        0.0,
        2.220446049250313e-16,
        -1.0,
        0.0,
        0.0,
        1.0,
        2.220446049250313e-16,
        0.0,
        0.0,
        0.0,
        0.0,
        1.0
      ],
      "name": "Sketchfab_model"
    },
    {
      "children": [
        2,
        3,
        4,
        5,
        6,
        7,
        8
      ],
      "name": "AOTSketchfab.obj.cleaner.materialmerger.gles"
    },
    {
      "mesh": 0,
      "name": "Object_2"
    },
    {
      "mesh": 1,
      "name": "Object_3"
    },
    {
      "mesh": 2,
      "name": "Object_4"
    },
    {
      "mesh": 3,
      "name": "Object_5"
    },
    {
      "mesh": 4,
      "name": "Object_6"
    },
    {
      "mesh": 5,
      "name": "Object_7"
    },
    {
      "mesh": 6,
      "name": "Object_8"
    }
  ],
  "samplers": [
    {
      "magFilter": 9729,
      "minFilter": 9987,
      "wrapS": 10497,
      "wrapT": 10497
    }
  ],
  "scene": 0,
  "scenes": [
    {
      "name": "Sketchfab_Scene",
      "nodes": [
        0
      ]
    }
  ],
  "textures": [
    {
      "sampler": 0,
      "source": 0
    },
    {
      "sampler": 0,
      "source": 1
    },
    {
      "sampler": 0,
      "source": 2
    }
  ]
}
